<svg fill="#2ecc71" xmlns="http://www.w3.org/2000/svg" xmlns:xlink="http://www.w3.org/1999/xlink" viewBox="0 0 24 24" version="1.1">
  <path d="M 24 12 L 20.789063 9.644531 L 22.390625 6 L 18.433594 5.566406 L 18 1.609375 L 14.355469 3.210938 L 12 0 L 9.644531 3.210938 L 6 1.609375 L 5.566406 5.566406 L 1.609375 6 L 3.210938 9.644531 L 0 12 L 3.210938 14.355469 L 1.609375 18 L 5.566406 18.433594 L 6 22.390625 L 9.644531 20.789063 L 12 24 L 14.355469 20.789063 L 18 22.390625 L 18.433594 18.433594 L 22.390625 18 L 20.789063 14.355469 Z M 8.90625 15 L 8.070313 15 L 5.855469 10.675781 L 5.835938 10.683594 L 5.835938 15 L 5 15 L 5 9 L 5.835938 9 L 8.050781 13.324219 L 8.070313 13.316406 L 8.070313 9 L 8.902344 9 L 8.902344 15 Z M 13.097656 15 L 9.953125 15 L 9.953125 9 L 13.074219 9 L 13.074219 9.804688 L 10.789063 9.804688 L 10.789063 11.496094 L 12.746094 11.496094 L 12.746094 12.300781 L 10.789063 12.300781 L 10.789063 14.203125 L 13.097656 14.203125 Z M 18.152344 15 L 17.394531 15 L 16.394531 10.730469 L 16.371094 10.730469 L 15.371094 15 L 14.609375 15 L 13.425781 9 L 14.300781 9 L 15.042969 13.324219 L 15.0625 13.324219 L 16.011719 9 L 16.746094 9 L 17.707031 13.328125 L 17.726563 13.328125 L 18.460938 9 L 19.339844 9 Z "></path>
</svg>
