<?xml version="1.0" encoding="utf-8"?>
<!-- Svg Vector Icons : http://www.onlinewebfonts.com/icon -->
<!DOCTYPE svg PUBLIC "-//W3C//DTD SVG 1.1//EN" "http://www.w3.org/Graphics/SVG/1.1/DTD/svg11.dtd">
<svg version="1.1" xmlns="http://www.w3.org/2000/svg" xmlns:xlink="http://www.w3.org/1999/xlink" x="0px" y="0px" viewBox="0 0 1000 1000" enable-background="new 0 0 1000 1000" xml:space="preserve">
<metadata> Svg Vector Icons : http://www.onlinewebfonts.com/icon </metadata>
<g><path d="M973.6,968.3c-9.6,10.6-27.7,23.3-59.3,23.3H77.1c-22.3,0-39.6-6.8-51.5-20.1c-12.6-14.2-17.6-34.2-14.8-59.7l74.1-483.2c6.9-61.3,64-112.2,127-112.2h73.5v-81.7c0-124.7,90.9-226.2,215.6-226.2c124.7,0,213.7,101.5,213.7,226.2v81.7h67.7c63,0,120.1,50.9,127.2,113.5l79.9,482.8C992.4,941.3,982.4,958.5,973.6,968.3z M653.3,234.7c0-90.9-61.5-164.9-152.4-164.9c-90.9,0-154.2,74-154.2,164.9v81.7h306.6V234.7z M848.9,438.5c-3.9-33.7-34.3-60.8-66.5-60.8h-67.7v69.9c18.3,10.6,30.7,30.2,30.7,52.9c0,33.9-27.5,61.3-61.3,61.3s-61.3-27.5-61.3-61.3c0-22.6,12.4-42.2,30.6-52.8v-69.9H346.7v69.9c18.2,10.6,30.6,30.2,30.6,52.8c0,33.9-27.5,61.3-61.3,61.3c-33.9,0-61.3-27.5-61.3-61.3c0-22.7,12.4-42.2,30.7-52.9v-69.9h-73.5c-32.3,0-62.6,27.1-66.3,59.1L71.5,920c-1.2,7.4,4,10.2,9.3,10.2l836.2-0.4c9,0,12.1-5,11.7-8.9L848.9,438.5z"/></g>
</svg>