<?xml version="1.0" encoding="utf-8"?>
<!-- Svg Vector Icons : http://www.onlinewebfonts.com/icon -->
<!DOCTYPE svg PUBLIC "-//W3C//DTD SVG 1.1//EN" "http://www.w3.org/Graphics/SVG/1.1/DTD/svg11.dtd">
<svg version="1.1" xmlns="http://www.w3.org/2000/svg" xmlns:xlink="http://www.w3.org/1999/xlink" x="0px" y="0px" viewBox="0 0 1000 1000" enable-background="new 0 0 1000 1000" xml:space="preserve">
<metadata> Svg Vector Icons : http://www.onlinewebfonts.com/icon </metadata>
<g><path d="M500,10C229.8,10,10,229.8,10,500c0,270.2,219.8,490,490,490s490-219.8,490-490C990,229.8,770.2,10,500,10z M835.1,766.7c-1.4-4.6-3.6-9-7.2-12.6l-27.5-27.5c-6-6-13.8-9-21.7-9c-7.8,0-15.7,3-21.7,9c-12,12-12,31.3,0,43.3l27.5,27.5c4.5,4.5,10.2,6.8,16,7.9C723.2,881.5,617,928.8,500,928.8c-116.8,0-222.7-47.1-300.1-123.1c6.8-0.7,13.4-3.2,18.6-8.4l27.5-27.5c6-6,9-13.8,9-21.7c0-7.8-3-15.7-9-21.7c-12-12-31.3-12-43.3,0L175.2,754c-4.5,4.5-6.8,10.1-7.9,16c-53.9-66.3-88.1-149-94.5-239.3h59.7c16.9,0,30.6-13.7,30.6-30.6c0-16.9-13.7-30.6-30.6-30.6l-59.7,0c6.8-95.2,44.6-181.7,103.5-249.7l26.4,26.4c6,6,13.8,9,21.7,9c7.8,0,15.7-3,21.7-9c12-12,12-31.3,0-43.3l-26.4-26.4c68-59,154.6-96.8,249.7-103.5v59.7c0,16.9,13.7,30.6,30.6,30.6c16.9,0,30.6-13.7,30.6-30.6V72.8c212,15.1,381.5,184.6,396.6,396.6h-59.7c-16.9,0-30.6,13.7-30.6,30.6c0,16.9,13.7,30.6,30.6,30.6h59.7C920.9,619.5,887.6,700.9,835.1,766.7z M690.8,266L539.3,447.9c-11.9-5.7-25.2-9.1-39.3-9.1c-50.7,0-91.9,41.2-91.9,91.9c0,50.7,41.2,91.9,91.9,91.9s91.9-41.2,91.9-91.9c0-14.3-3.6-27.7-9.5-39.8c0.7-0.7,1.7-1,2.4-1.8l153.1-183.8c10.8-13,9.1-32.3-3.9-43.2C721,251.3,701.7,253,690.8,266z M530.6,561.3h-61.3V500h61.3V561.3z"/></g>
</svg>