<?xml version="1.0" encoding="utf-8"?>
<!-- Svg Vector Icons : http://www.onlinewebfonts.com/icon -->
<!DOCTYPE svg PUBLIC "-//W3C//DTD SVG 1.1//EN" "http://www.w3.org/Graphics/SVG/1.1/DTD/svg11.dtd">
<svg version="1.1" xmlns="http://www.w3.org/2000/svg" xmlns:xlink="http://www.w3.org/1999/xlink" x="0px" y="0px" viewBox="0 0 1000 1000" enable-background="new 0 0 1000 1000" xml:space="preserve">
<metadata> Svg Vector Icons : http://www.onlinewebfonts.com/icon </metadata>
<g><path d="M22,532.2l442.8,251.4c2.2,2.2,13.4,8.9,33.4,8.9c13.4,0,31.2-4.5,51.2-15.6c37.8-22.3,425-251.4,429.5-253.7c11.1-6.7,13.4-20,8.9-31.2c-6.7-11.1-20-13.4-31.2-8.9c-4.5,2.2-391.6,229.2-429.5,253.7c-24.5,15.6-37.8,8.9-37.8,6.7l-445-253.7c-11.1-6.7-24.5-2.2-31.2,8.9C8.7,512.2,10.9,525.5,22,532.2z"/><path d="M956.6,676.9c-4.5,2.2-391.6,229.2-429.5,253.7c-24.5,15.6-37.8,8.9-37.8,6.7l-445-253.7c-11.1-6.7-24.5-2.2-31.2,8.9c-6.7,11.1-2.2,24.5,8.9,31.2L464.9,975c2.2,2.2,13.4,8.9,33.4,8.9c13.4,0,31.2-4.5,51.2-15.6c37.8-22.3,425-251.4,429.5-253.7c11.1-6.7,13.4-20,8.9-31.2C981.1,674.6,967.7,672.4,956.6,676.9z"/><path d="M22,325.3l442.8,251.4c2.2,2.2,13.4,8.9,33.4,8.9c13.4,0,31.2-4.5,51.2-15.6c37.8-22.3,425-251.4,429.5-253.7c6.7-4.5,11.1-11.1,11.1-17.8v-2.2v-2.2c0-6.7-4.5-15.6-11.1-17.8L536.1,24.9c-4.5-2.2-35.6-22.3-84.6,6.7C413.7,53.8,26.5,283,22,285.2c-6.7,4.5-11.1,11.1-11.1,17.8v2.2v2.2C10.9,314.2,15.4,320.8,22,325.3z M473.8,69.4c24.5-15.6,37.8-8.9,37.8-6.7l413.9,235.9C832,354.2,558.3,514.4,527.2,532.2c-24.5,15.6-37.8,8.9-37.8,6.7L75.4,303C168.9,249.6,442.6,89.4,473.8,69.4z"/></g>
</svg>