<?xml version="1.0" encoding="utf-8"?>
<!-- Svg Vector Icons : http://www.onlinewebfonts.com/icon -->
<!DOCTYPE svg PUBLIC "-//W3C//DTD SVG 1.1//EN" "http://www.w3.org/Graphics/SVG/1.1/DTD/svg11.dtd">
<svg version="1.1" xmlns="http://www.w3.org/2000/svg" xmlns:xlink="http://www.w3.org/1999/xlink" x="0px" y="0px" viewBox="0 0 1000 1000" enable-background="new 0 0 1000 1000" xml:space="preserve">
<metadata> Svg Vector Icons : http://www.onlinewebfonts.com/icon </metadata>
<g><path d="M960.4,923.8H10V105.9c0-16.4,13.3-29.6,29.6-29.6c16.4,0,29.6,13.3,29.6,29.6v758.7h891.1c16.4,0,29.6,13.3,29.6,29.6S976.7,923.8,960.4,923.8z"/><path d="M108.5,788c-6.5,0-13-2.1-18.5-6.5c-12.8-10.2-14.9-28.9-4.7-41.7l231.9-290.6c9.3-11.7,25.9-14.6,38.6-6.8l186.4,114L894,275.3c12.8-10.2,31.4-8.1,41.7,4.6c10.2,12.8,8.1,31.4-4.6,41.7L563,615.8c-9.7,7.8-23.3,8.6-34,2.1L347.3,506.7L131.7,776.8C125.9,784.2,117.3,788,108.5,788z"/></g>
</svg>