<?xml version="1.0" encoding="utf-8"?>
<!-- Svg Vector Icons : http://www.onlinewebfonts.com/icon -->
<!DOCTYPE svg PUBLIC "-//W3C//DTD SVG 1.1//EN" "http://www.w3.org/Graphics/SVG/1.1/DTD/svg11.dtd">
<svg version="1.1" xmlns="http://www.w3.org/2000/svg" xmlns:xlink="http://www.w3.org/1999/xlink" x="0px" y="0px" viewBox="0 0 1000 1000" enable-background="new 0 0 1000 1000" xml:space="preserve">
<metadata> Svg Vector Icons : http://www.onlinewebfonts.com/icon </metadata>
<g><path d="M979.7,475.3l-210-210c-13.7-13.7-35.8-13.7-49.5,0c-13.7,13.7-13.7,35.8,0,49.5L870.5,465H325c-19.3,0-35,15.7-35,35c0,19.3,15.7,35,35,35h545.5L720.3,685.3c-13.7,13.7-13.7,35.8,0,49.5c6.8,6.8,15.8,10.3,24.7,10.3s17.9-3.4,24.7-10.3l210-210C993.4,511.1,993.4,488.9,979.7,475.3z"/><path d="M605,710c-19.3,0-35,15.7-35,35v105c0,38.6-31.4,70-70,70H150c-38.6,0-70-31.4-70-70V150c0-38.6,31.4-70,70-70h350c38.6,0,70,31.4,70,70v105c0,19.3,15.7,35,35,35s35-15.7,35-35V150c0-77.2-62.8-140-140-140H150C72.8,10,10,72.8,10,150v700c0,77.2,62.8,140,140,140h350c77.2,0,140-62.8,140-140V745C640,725.7,624.3,710,605,710z"/></g>
</svg>