<?xml version="1.0" encoding="utf-8"?>
<!-- Svg Vector Icons : http://www.onlinewebfonts.com/icon -->
<!DOCTYPE svg PUBLIC "-//W3C//DTD SVG 1.1//EN" "http://www.w3.org/Graphics/SVG/1.1/DTD/svg11.dtd">
<svg version="1.1" xmlns="http://www.w3.org/2000/svg" xmlns:xlink="http://www.w3.org/1999/xlink" x="0px" y="0px" viewBox="0 0 1000 1000" enable-background="new 0 0 1000 1000" xml:space="preserve">
<metadata> Svg Vector Icons : http://www.onlinewebfonts.com/icon </metadata>
<g><path d="M376.9,200.9h246.1H376.9z"/><path d="M623.1,218.9H376.9c-9.9,0-18-8.1-18-18c0-9.9,8.1-18,18-18h246.1c10,0,18,8.1,18,18C641.1,210.8,633,218.9,623.1,218.9z"/><path d="M676.3,290.4c-10,0-18-8.1-18-18v-71.5c0-9.9,8.1-18,18-18c10,0,18,8.1,18,18v71.5C694.4,282.3,686.3,290.4,676.3,290.4z"/><path d="M323.7,290.4c-9.9,0-18-8.1-18-18V194c0-101.4,82.5-184,184-184h20.7c101.4,0,184,82.5,184,184v6.9c0,9.9-8,18-18,18c-10,0-18-8.1-18-18V194c0-81.6-66.4-148-148-148h-20.7c-81.6,0-148,66.4-148,148v78.4C341.7,282.3,333.6,290.4,323.7,290.4z"/><path d="M709.8,990H290.2c-65.4,0-117-50.6-128.5-125.9l-112-552.5c0-70.9,57.7-128.7,128.7-128.7h142.6v36H178.4c-50.5,0-91.7,40.6-92.6,90.9l111.4,548c6.9,44.9,35.2,96.2,93,96.2h419.5c54.5,0,86.3-49.3,92.8-95.2l111.6-549c-0.9-50.3-42.1-90.9-92.6-90.9H678.5v-36h143.1c70.9,0,128.7,57.7,128.7,128.7l-0.4,3.6L838.1,865C827.7,938.1,774.9,990,709.8,990z"/><path d="M672.4,604.5H327c-9.9,0-18-8.1-18-18c0-10,8.1-18,18-18h345.3c10,0,18,8,18,18C690.4,596.4,682.3,604.5,672.4,604.5z"/><path d="M499.7,777.4c-9.9,0-18-8-18-18V413.5c0-9.9,8.1-18,18-18s18,8.1,18,18v345.9C517.7,769.4,509.7,777.4,499.7,777.4z"/></g>
</svg>