<?xml version="1.0" encoding="utf-8"?>
<!-- Svg Vector Icons : http://www.onlinewebfonts.com/icon -->
<!DOCTYPE svg PUBLIC "-//W3C//DTD SVG 1.1//EN" "http://www.w3.org/Graphics/SVG/1.1/DTD/svg11.dtd">
<svg version="1.1" xmlns="http://www.w3.org/2000/svg" xmlns:xlink="http://www.w3.org/1999/xlink" x="0px" y="0px" viewBox="0 0 1000 1000" enable-background="new 0 0 1000 1000" xml:space="preserve">
<metadata> Svg Vector Icons : http://www.onlinewebfonts.com/icon </metadata>
<g><g transform="translate(0.000000,511.000000) scale(0.100000,-0.100000)"><path d="M3672.7,4126.2c-130-29.8-234.4-93.8-336.6-204.5c-117.2-125.7-123.6-144.9-232.2-581.6c-49-193.9-95.9-387.7-108.7-430.4l-21.3-81H1945c-875.6,0-1043.9-4.3-1144-34.1c-311-91.6-564.6-338.7-660.4-649.8C102.1,2021.4,100,1908.4,100-547.9c0-2456.4,2.1-2569.3,40.5-2692.9c100.1-323.8,381.3-585.9,707.3-660.4c130-29.8,8174.5-29.8,8304.4,0c325.9,74.6,607.2,336.6,707.3,660.4c38.4,123.6,40.5,236.5,40.5,2690.7c0,2275.3-4.3,2573.6-34.1,2678c-91.6,311-338.7,564.6-649.8,660.4c-119.3,38.3-208.8,40.5-1161.1,40.5H7026l-21.3,81c-12.8,42.6-59.6,236.5-108.6,430.4c-46.9,193.9-102.3,385.6-119.3,428.2c-46.9,106.5-210.9,262-338.8,321.7l-106.5,49l-1288.9,4.3C4331,4145.4,3717.5,4136.9,3672.7,4126.2z M6320.9,3644.8c59.6-53.3,76.7-102.3,159.8-432.5c53.3-204.5,95.9-374.9,95.9-377.1c0-4.2-709.4-6.4-1576.5-6.4s-1576.5,2.1-1576.5,6.4c0,2.1,42.6,172.6,95.9,377.1c83.1,330.2,100.1,379.2,159.8,432.5l63.9,57.5h1257h1257L6320.9,3644.8z M9088.3,2368.6c81-23.4,142.7-61.8,215.2-134.2c183.2-183.2,170.4,17,170.4-2771.7c0-2727,6.4-2594.9-138.5-2763.2c-40.5-49-119.3-110.8-176.8-138.5l-100.1-49l-4013.7-6.4c-4416.4-6.4-4145.8-12.8-4312,123.6c-42.6,36.2-104.4,112.9-138.5,166.2l-57.5,100.1v2556.5v2556.5l46.9,87.4c61.8,117.2,204.5,236.5,326,274.8c81,23.4,732.9,29.8,4081.9,29.8C8557.8,2402.7,8988.2,2398.4,9088.3,2368.6z"/><path d="M7173,1848.8v-213h926.7h926.7v213v213h-926.7H7173V1848.8z"/><path d="M4584.6,1814.7c-982.1-174.7-1751.2-937.4-1943-1923.8c-44.7-240.8-44.7-639.1,2.1-882c176.8-920.4,852.2-1636.2,1776.8-1885.4c185.4-49,245-55.4,579.5-55.4s394.1,6.4,579.5,55.4c922.5,249.3,1602.1,969.4,1776.8,1885.4c117.2,615.7-29.8,1303.8-392,1817.2C6429.5,1584.6,5487.9,1976.6,4584.6,1814.7z M5232.2,1401.4c458-57.5,875.6-270.6,1197.3-609.3c215.2-228,360.1-483.6,458-809.6c53.3-172.6,59.7-219.4,59.7-530.5c0-308.9-6.4-357.9-57.5-528.3c-221.6-720.1-773.3-1235.7-1495.6-1393.3c-191.7-42.6-592.3-42.6-788.3,0c-886.3,191.7-1519,935.3-1559.5,1836.4c-25.6,583.7,187.5,1110,611.4,1510.5C4092.4,1284.2,4657,1471.7,5232.2,1401.4z"/></g></g>
</svg>