<?xml version="1.0" encoding="utf-8"?>
<!-- Svg Vector Icons : http://www.onlinewebfonts.com/icon -->
<!DOCTYPE svg PUBLIC "-//W3C//DTD SVG 1.1//EN" "http://www.w3.org/Graphics/SVG/1.1/DTD/svg11.dtd">
<svg version="1.1" xmlns="http://www.w3.org/2000/svg" xmlns:xlink="http://www.w3.org/1999/xlink" x="0px" y="0px" viewBox="0 0 1000 1000" enable-background="new 0 0 1000 1000" xml:space="preserve">
<metadata> Svg Vector Icons : http://www.onlinewebfonts.com/icon </metadata>
<g><path d="M929.2,407.2l-78.6-17.4c-6.1-19.6-14.1-38.4-23.4-56.4l42.5-70.9c15.9-25.4,23.9-62.7,0-86.6l-43.3-43.3c-23.9-23.9-64.3-19.6-88.6-2.7l-68.9,43.9c-17.9-9.3-36.6-17.2-56-23.5l-17.6-79.6C590,41.6,564.5,10,530.6,10h-61.2c-33.8,0-54.6,32.1-61.2,61.3l-19.6,78.6c-20.8,6.6-40.7,15.1-59.7,25.1l-70.7-45c-24.4-16.9-64.7-21.2-88.6,2.7l-43.3,43.3c-23.9,23.9-15.9,61.3,0,86.6l44.7,74.6c-8.4,16.9-15.8,34.4-21.6,52.7l-78.6,17.4C41.6,412.5,10,438,10,471.8v61.2c0,33.8,32.1,54.6,61.3,61.3l79.6,19.9c5.5,16.9,12.4,33.1,20.2,48.8l-44.8,74.6c-15.9,25.4-23.9,62.7,0,86.6l43.3,43.3c23.9,23.9,64.3,19.6,88.6,2.7l70.8-45.1c19.1,10.1,39.1,18.6,60,25.2l19.6,78.4c6.7,29.2,27.4,61.3,61.3,61.3h61.2c33.8,0,59.3-31.6,64.6-60.8l17.7-79.8c19.2-6.2,37.7-14.1,55.4-23.2l69.1,44c24.4,16.9,64.8,21.2,88.6-2.7l43.3-43.3c23.9-23.9,15.9-61.3,0-86.6l-42.6-70.9c8.6-16.8,16-34.3,21.9-52.5l79.6-19.9c29.2-6.7,61.3-27.4,61.3-61.3v-61.2C990,438,958.4,412.5,929.2,407.2z M928.8,528.8c-2.6,1.9-7.5,4.4-13.7,5.9L801.5,563L791,595.2c-4.8,14.5-10.9,29.2-18.3,43.8l-15.4,30.2l60,100c3.8,6.1,5.6,11.6,6.2,14.8l-40.3,40.2c-3.9-1.2-8.3-2.8-10.4-4.3l-100.8-64.3l-31.3,16.2c-15.1,7.8-30.6,14.3-46,19.3L561.2,802l-25.2,114c-1.2,6.1-4.4,11-6.7,12.8h-55.1c-1.9-2.6-4.4-7.5-5.8-13.7l-28.2-112.8L407.5,792c-16.8-5.3-33.6-12.3-49.9-21l-31.5-16.6l-100.8,64.3c-4.1,2.8-8.5,4.4-12.5,4.4l-40.2-39.1c0.5-3.2,2.2-8.4,5.5-13.8l62.6-104.4l-14.9-30c-7-14.1-12.5-27.4-16.8-40.6L198.6,563L86.1,534.9c-7.1-1.6-12.2-4.2-14.8-6.1v-56.9c0,0,0.1,0,0.1,0c1,0,6.1-3.6,10.3-4.4l115.5-25.6l10.6-33.8c4.3-13.8,10.2-28.1,18-43.8l14.9-30l-62-103.3c-3.8-6.2-5.6-11.6-6.2-14.8l40.3-40.3c3.9,1.3,8.3,2.8,10.4,4.3l102.7,65.5l31.5-16.6c16.1-8.5,32.9-15.5,49.7-20.9l32.6-10.4l27.9-111.8c1.6-7.1,4.2-12.2,6.1-14.8h56.9c-0.4,0.6,3.5,6,4.3,10.4l25.7,116.2l33.3,10.8c15.6,5.1,31.3,11.6,46.6,19.6l31.3,16.3l98.7-62.9c4.1-2.8,8.6-4.4,12.5-4.4l40.2,39.1c-0.5,3.2-2.2,8.4-5.6,13.8l-60.6,101l15.5,30.3c8.3,16.3,14.7,31.6,19.4,46.8l10.6,33.8L916,467c6.9,1.3,12.2,5.2,13.3,7.4L928.8,528.8z M500.4,316C398.7,316,316,398.5,316,500c0,101.5,82.8,184,184.5,184c101.7,0,184.5-82.6,184.5-184C684.9,398.5,602.1,316,500.4,316z M500,622.5c-67.5,0-122.5-54.9-122.5-122.5c0-67.6,54.9-122.5,122.5-122.5c67.6,0,122.5,54.9,122.5,122.5C622.5,567.5,567.5,622.5,500,622.5z"/></g>
</svg>