<?xml version="1.0" standalone="no"?>
<!DOCTYPE svg PUBLIC "-//W3C//DTD SVG 20010904//EN"
 "http://www.w3.org/TR/2001/REC-SVG-20010904/DTD/svg10.dtd">
<svg version="1.0" xmlns="http://www.w3.org/2000/svg"
 width="581.000000pt" height="352.000000pt" viewBox="0 0 581.000000 352.000000"
 preserveAspectRatio="xMidYMid meet">
<metadata>
Created by potrace 1.14, written by Peter Selinger 2001-2017
</metadata>
<g transform="translate(0.000000,352.000000) scale(0.100000,-0.100000)"
fill="#e74c3c" stroke="none">
<path d="M3575 3180 c-1177 -104 -2453 -214 -2835 -245 -382 -31 -705 -59
-717 -61 l-23 -4 0 -1326 0 -1326 38 6 c82 14 3592 481 4247 565 385 50 732
95 770 101 39 5 224 28 413 52 l342 42 0 1193 0 1193 -47 -1 c-27 -1 -1011
-86 -2188 -189z m-2751 -915 c81 -77 150 -141 154 -143 5 -1 76 63 159 143 83
80 154 145 157 145 3 0 6 -139 6 -310 l0 -310 -40 0 -40 0 0 216 0 216 -116
-109 c-63 -59 -118 -109 -122 -110 -4 -1 -59 47 -122 107 l-115 109 -3 -214
-2 -215 -40 0 -40 0 0 311 c0 172 4 309 9 307 4 -1 74 -66 155 -143z m654 112
l32 -33 -2 -275 -3 -274 -37 -3 -38 -3 0 310 c0 171 4 311 8 311 4 0 23 -15
40 -33z m2014 -6 c64 -31 116 -84 147 -150 21 -47 26 -70 25 -141 0 -107 -25
-170 -94 -234 -73 -68 -106 -80 -235 -80 -124 -1 -181 17 -243 77 -81 78 -114
225 -78 349 26 91 98 161 201 195 64 21 219 12 277 -16z m-1331 -24 c41 -27
79 -98 79 -148 0 -92 -89 -175 -177 -166 -24 2 -43 1 -43 -3 0 -4 20 -25 45
-47 59 -52 195 -184 195 -189 0 -2 -25 -4 -56 -4 l-56 0 -127 119 -127 120
-85 2 -84 2 -3 -121 -3 -122 -39 0 -40 0 0 290 0 290 244 0 c236 0 244 -1 277
-23z m683 8 c85 -41 117 -176 59 -253 -37 -49 -71 -67 -129 -67 -30 0 -54 -3
-54 -6 0 -4 52 -55 115 -114 63 -59 115 -111 115 -116 0 -5 -24 -9 -52 -9
l-53 0 -126 120 -126 119 -84 2 -84 2 -5 -119 -5 -119 -37 -3 -38 -3 0 290 0
291 236 0 c192 0 242 -3 268 -15z m1413 -2 c52 -24 85 -80 85 -145 0 -31 -6
-67 -15 -85 -33 -64 -108 -103 -172 -91 -14 3 -25 2 -25 -2 0 -5 52 -56 115
-115 63 -59 115 -111 115 -116 0 -5 -24 -9 -52 -9 l-53 0 -130 123 -130 122
-82 -3 -83 -4 0 -119 0 -119 -40 0 -40 0 0 290 0 290 236 0 c199 0 241 -3 271
-17z m837 -28 l-1 -40 -227 -5 c-255 -6 -256 -6 -256 -79 0 -67 11 -71 212
-71 198 0 226 -6 271 -59 53 -64 55 -153 5 -224 -38 -53 -59 -57 -280 -57
l-204 0 -44 45 c-24 25 -40 45 -35 45 6 1 114 0 241 0 l232 -1 27 32 c29 35
28 68 -2 102 -14 15 -37 17 -194 17 -102 0 -190 5 -206 11 -97 37 -139 169
-80 257 45 68 62 72 317 69 l225 -2 -1 -40z m-4124 -892 c41 -37 48 -86 20
-131 -28 -45 -58 -53 -175 -51 l-100 2 -5 -69 c-5 -66 -6 -69 -30 -69 l-25 0
-3 160 c-1 87 0 165 2 172 4 10 40 13 146 13 138 0 140 0 170 -27z m178 -45
l3 -68 114 0 114 0 3 68 c3 64 4 67 28 67 l25 0 3 -172 2 -173 -30 0 -30 0 0
75 0 75 -99 0 c-75 0 -101 4 -111 15 -7 8 -15 15 -19 15 -3 0 -6 -39 -6 -87
l0 -88 -27 -3 -28 -3 0 169 c0 93 3 172 7 176 4 4 16 6 28 4 17 -3 20 -11 23
-70z m649 46 c97 -72 94 -232 -5 -299 -52 -36 -142 -35 -195 0 -109 74 -99
259 17 311 45 21 148 14 183 -12z m501 -6 c3 -27 3 -27 -65 -30 l-68 -3 -3
-143 -3 -143 -27 3 -27 3 -1 140 -1 140 -49 5 c-52 5 -94 27 -94 48 0 10 36
12 168 10 l167 -3 3 -27z m363 9 c42 -28 69 -87 69 -153 0 -68 -20 -107 -73
-148 -29 -22 -44 -26 -100 -26 -65 0 -68 1 -111 43 -71 68 -82 146 -33 231 33
58 77 78 158 73 37 -2 76 -11 90 -20z"/>
<path d="M3222 2292 c-98 -35 -142 -101 -142 -212 0 -121 61 -196 178 -221
160 -33 294 35 323 165 24 109 -20 210 -114 258 -59 30 -176 34 -245 10z"/>
<path d="M1720 2200 l0 -80 189 0 c104 0 197 3 206 6 25 10 47 62 40 95 -12
55 -30 59 -242 59 l-193 0 0 -80z"/>
<path d="M2420 2200 l0 -80 193 0 c189 0 194 1 215 23 29 30 30 89 2 117 -19
19 -33 20 -215 20 l-195 0 0 -80z"/>
<path d="M3830 2200 l0 -80 193 0 c188 0 194 1 214 23 11 12 23 30 26 39 9 24
-11 76 -33 88 -10 6 -104 10 -209 10 l-191 0 0 -80z"/>
<path d="M712 1359 l3 -42 109 2 c61 1 113 4 118 7 16 10 8 53 -11 64 -11 5
-65 10 -121 10 l-101 0 3 -41z"/>
<path d="M1604 1366 c-26 -26 -34 -42 -34 -69 0 -86 50 -131 138 -124 72 5
103 35 110 106 4 47 2 53 -31 86 -32 32 -40 35 -92 35 -51 0 -60 -3 -91 -34z"/>
<path d="M2481 1384 c-47 -33 -62 -120 -28 -164 24 -32 62 -50 105 -50 116 0
172 122 92 202 -25 24 -36 28 -87 28 -38 0 -67 -6 -82 -16z"/>
</g>
</svg>
